<svg width="297" height="97" viewBox="0 0 297 97" fill="none" xmlns="http://www.w3.org/2000/svg">
<path d="M12.4629 66.2085C12.4629 69.8741 13.4809 73.1731 15.5169 76.1055C17.5539 79.038 20.1606 81.1557 23.3371 82.4596V95.533C19.9973 94.7999 16.9025 93.517 14.0506 91.6842C11.1999 89.8514 8.73557 87.6322 6.65876 85.0255C4.58196 82.4187 2.95235 79.5271 1.77099 76.3495C0.590675 73.173 0 69.7924 0 66.2085V27.8425H12.4629V66.2085ZM60.1154 27.964V66.2085C60.1154 70.0374 59.4629 73.6213 58.16 76.9612C56.8572 80.3011 55.0642 83.2943 52.7842 85.9419C50.5032 88.5884 47.7948 90.7877 44.6582 92.5399C41.5225 94.291 38.1628 95.4514 34.5778 96.0222V83.1927C38.3251 82.2145 41.4408 80.1785 43.9251 77.0826C46.4103 73.9879 47.6524 70.3631 47.6524 66.2085V27.964H60.1154Z" fill="#2656FF"/>
<path d="M109.172 11.4396C97.3054 10.451 91.3714 15.5755 91.3714 26.8141V28.8365H109.172V40.1651H91.3714V96.2662H79.6384V40.1651H68.8501V28.8365H79.6384V26.8141C79.6384 17.7339 82.1792 10.8553 87.2586 6.18113C92.338 1.50596 99.643 -0.517421 109.172 0.11201V11.4396Z" fill="#4F4E4E"/>
<path d="M109.172 11.4396C103.018 10.9275 98.4606 12.0586 95.4978 14.8339C92.7465 17.4103 91.3714 21.4037 91.3714 26.8141V28.8365H109.172V40.1651H91.3714V96.2662H79.6384V40.1651H68.8501V28.8365H79.6384V26.8141C79.6384 17.7339 82.1792 10.8553 87.2586 6.18113C92.338 1.50596 99.643 -0.517421 109.172 0.11201V11.4396Z" fill="#4F4E4E"/>
<path d="M147.177 39.8164C144.326 39.8164 141.638 40.3055 139.113 41.2827C136.588 42.2598 134.328 43.6245 132.331 45.3756C130.336 47.1277 128.687 49.1835 127.383 51.5463C126.08 53.909 125.265 56.4749 124.939 59.244H112.354C112.68 54.7636 113.82 50.589 115.776 46.7203C117.73 42.8505 120.276 39.4907 123.411 36.64C126.548 33.7882 130.112 31.528 134.103 29.8586C138.095 28.1882 142.371 27.3535 146.933 27.3535C151.494 27.3535 155.791 28.1882 159.823 29.8586C163.855 31.528 167.439 33.7882 170.576 36.64C173.711 39.4907 176.237 42.8505 178.151 46.7203C180.065 50.589 181.226 54.7636 181.633 59.244H168.926C168.519 56.4749 167.684 53.909 166.421 51.5463C165.159 49.1835 163.549 47.1277 161.595 45.3756C159.64 43.6245 157.4 42.2598 154.875 41.2827C152.35 40.3055 149.661 39.8164 146.81 39.8164H147.177ZM147.177 84.4138C151.983 84.4138 156.239 83.0702 159.946 80.3817C163.652 77.6944 166.32 74.2728 167.948 70.1182H181.144C180.249 73.9471 178.742 77.4901 176.624 80.7483C174.506 84.0064 171.94 86.8373 168.926 89.2409C165.912 91.6434 162.552 93.5171 158.846 94.8608C155.14 96.2055 151.25 96.8768 147.177 96.8768C143.104 96.8768 139.214 96.2055 135.508 94.8608C131.802 93.5171 128.442 91.6434 125.428 89.2409C122.414 86.8373 119.849 84.0064 117.73 80.7483C115.612 77.4901 114.105 73.9471 113.21 70.1182H126.406C128.034 74.2728 130.703 77.6944 134.408 80.3817C138.115 83.0702 142.371 84.4138 147.177 84.4138Z" fill="#4F4E4E"/>
<path d="M203.732 40.165C207.599 31.8033 214.612 27.6235 224.771 27.6235V39.8948C219.017 39.6256 214.072 41.1536 209.937 44.4799C205.801 47.8072 203.732 53.1558 203.732 60.5288V96.266H192V28.8363H203.732V40.165Z" fill="#4F4E4E"/>
<path d="M238.843 62.1157C238.864 64.8984 239.346 67.5261 240.31 69.9967C241.284 72.5217 242.645 74.7818 244.394 76.778C246.154 78.7731 248.206 80.4226 250.573 81.7265C252.93 83.0294 255.496 83.8442 258.271 84.1699V96.7554C253.788 96.4297 249.61 95.2891 245.745 93.3338C241.87 91.3795 238.519 88.8335 235.659 85.6979C232.811 82.5612 230.549 78.9972 228.883 75.006C227.208 71.0147 226.38 66.7385 226.38 62.1765C226.38 57.6154 227.208 53.3184 228.883 49.2862C230.549 45.2541 232.811 41.6702 235.659 38.5335C238.519 35.3979 241.87 32.8729 245.745 30.9584C249.61 29.0439 253.788 27.8835 258.271 27.4761V40.183C255.496 40.5904 252.93 41.4252 250.573 42.6882C248.206 43.9502 246.154 45.5599 244.394 47.5142C242.645 49.4695 241.284 51.7097 240.31 54.2347C239.346 56.7053 238.864 59.332 238.843 62.1157ZM284.045 88.1287C282.715 89.309 281.291 90.393 279.772 91.3796C276.515 93.4972 272.975 95.0043 269.142 95.8997V82.7036C273.3 81.0751 276.714 78.4065 279.405 74.7012C282.097 70.9948 283.438 66.7386 283.438 61.9325C283.438 57.1264 282.097 52.8701 279.405 49.1637C276.714 45.4573 273.3 42.7898 269.142 41.1612V27.9651C272.975 28.8606 276.515 30.3677 279.772 32.4854C283.029 34.603 285.857 37.1689 288.266 40.183C290.664 43.1972 292.539 46.5569 293.879 50.2634C295.23 53.9698 295.901 57.8595 295.901 61.9325C295.901 63.6647 296.141 65.3634 295.901 67.0286V96.7554H284.045V88.1287ZM238.843 62.1157C238.843 62.1765 238.843 62.2372 238.843 62.299V61.9325C238.843 61.9932 238.843 62.055 238.843 62.1157Z" fill="#4F4E4E"/>
</svg>
